<svg width="24" height="23" viewBox="0 0 24 23" fill="none" xmlns="http://www.w3.org/2000/svg">
<g id="paw">
<path id="Union" fill-rule="evenodd" clip-rule="evenodd" d="M11.4482 4.59077C11.4482 7.12619 10.0779 9.18155 8.38767 9.18155C6.6974 9.18155 5.32716 7.12619 5.32716 4.59077C5.32716 2.05536 6.6974 0 8.38767 0C10.0779 0 11.4482 2.05536 11.4482 4.59077ZM13.2636 22.0893C12.4847 21.7399 11.5743 21.7399 10.7955 22.0893C9.20645 22.8022 7.53721 22.8013 6.28103 21.9218C4.07736 20.379 3.9794 16.7166 6.06222 13.7416C7.58432 11.5676 9.84985 10.3623 11.8194 10.473C11.9594 10.4809 12.0997 10.4809 12.2397 10.473C14.2092 10.3623 16.4747 11.5676 17.9968 13.7416C20.0797 16.7166 19.9817 20.379 17.778 21.9218C16.5219 22.8013 14.8526 22.8022 13.2636 22.0893ZM15.2738 9.18155C16.9641 9.18155 18.3343 7.12619 18.3343 4.59077C18.3343 2.05536 16.9641 0 15.2738 0C13.5835 0 12.2133 2.05536 12.2133 4.59077C12.2133 7.12619 13.5835 9.18155 15.2738 9.18155ZM4.6487 9.80901C5.2104 11.8458 4.67505 13.7702 3.45296 14.1072C2.23087 14.4442 0.784825 13.0663 0.223127 11.0295C-0.338571 8.99265 0.196781 7.06828 1.41887 6.73126C2.64096 6.39424 4.087 7.7722 4.6487 9.80901ZM20.5471 14.1072C19.325 13.7702 18.7896 11.8458 19.3513 9.80901C19.913 7.7722 21.3591 6.39424 22.5812 6.73126C23.8033 7.06828 24.3386 8.99265 23.7769 11.0295C23.2152 13.0663 21.7692 14.4442 20.5471 14.1072Z" fill="#F9A828"/>
</g>
</svg>
